<svg width="53" height="53" viewBox="2 2 49 49" fill="none" xmlns="http://www.w3.org/2000/svg">
<path d="M39.982 11.5089C40.8242 11.0189 41.7984 11.9 41.3952 12.7871L39.0938 17.8503C38.9315 18.2073 38.5755 18.4365 38.1834 18.4365L35.7679 18.4365C35.2361 18.4365 34.7974 18.0203 34.7693 17.4893L34.6504 15.2397C34.6306 14.8652 34.822 14.5111 35.1461 14.3226L39.982 11.5089Z" fill="#34ACA2"/>
<path d="M13.0732 11.5089C12.231 11.0189 11.2568 11.9 11.66 12.7871L13.9614 17.8503C14.1237 18.2073 14.4797 18.4365 14.8718 18.4365L17.2873 18.4365C17.8191 18.4365 18.2578 18.0203 18.2859 17.4893L18.4048 15.2397C18.4246 14.8652 18.2332 14.5111 17.9091 14.3226L13.0732 11.5089Z" fill="#34ACA2"/>
<path d="M39.982 41.4921C40.8242 41.9822 41.7984 41.101 41.3952 40.214L39.0938 35.1508C38.9315 34.7938 38.5755 34.5646 38.1834 34.5646L35.7679 34.5646C35.2361 34.5646 34.7974 34.9808 34.7693 35.5118L34.6504 37.7614C34.6306 38.1359 34.822 38.4899 35.1461 38.6785L39.982 41.4921Z" fill="#34ACA2"/>
<path d="M13.0732 41.4921C12.231 41.9822 11.2568 41.101 11.66 40.214L13.9614 35.1508C14.1237 34.7938 14.4797 34.5646 14.8718 34.5646L17.2873 34.5646C17.8191 34.5646 18.2578 34.9808 18.2859 35.5118L18.4048 37.7614C18.4246 38.1359 18.2332 38.4899 17.9091 38.6785L13.0732 41.4921Z" fill="#34ACA2"/>
<path d="M26.3779 19.041C25.2837 19.0586 24.2486 19.3249 23.3242 19.791L22.249 12.1562L26.3779 7.56934V19.041Z" fill="#34ACA2"/>
<path d="M26.3779 7.11035L22.249 11.6982L26.6074 0L26.3779 7.11035Z" fill="#34ACA2"/>
<path d="M30.9649 12.1562L29.8731 19.9033C28.9597 19.4034 27.9302 19.0998 26.8369 19.0469V7.56934L30.9649 12.1562Z" fill="#2E8B83"/>
<path d="M30.9649 11.6982L26.8359 7.11035L26.7217 0L30.9649 11.6982Z" fill="#2E8B83"/>
<path d="M33.7158 26.3778C33.7 25.2956 33.4602 24.2699 33.043 23.3465L40.8438 22.2488L45.4307 26.3778H33.7158Z" fill="#34ACA2"/>
<path d="M45.8896 26.3778L41.3018 22.2488L53 26.6072L45.8896 26.3778Z" fill="#34ACA2"/>
<path d="M40.8438 30.9648L32.9424 29.8515C33.3902 28.9381 33.6624 27.9173 33.71 26.8359H45.4307L40.8438 30.9648Z" fill="#2E8B83"/>
<path d="M41.3018 30.9648L45.8896 26.8359L53 26.7216L41.3018 30.9648Z" fill="#2E8B83"/>
<path d="M26.3779 33.9443C25.2844 33.9268 24.2501 33.6599 23.3261 33.1943L22.249 40.8438L26.3779 45.4307V33.9443Z" fill="#34ACA2"/>
<path d="M26.3779 45.8896L22.249 41.3018L26.6074 53L26.3779 45.8896Z" fill="#34ACA2"/>
<path d="M30.9649 40.8438L29.8711 33.082C28.9581 33.5814 27.9295 33.8855 26.8369 33.9385V45.4307L30.9649 40.8438Z" fill="#2E8B83"/>
<path d="M30.9649 41.3018L26.8359 45.8896L26.7217 53L30.9649 41.3018Z" fill="#2E8B83"/>
<path d="M19.2686 26.3778C19.2843 25.295 19.5237 24.2684 19.9414 23.3446L12.1562 22.2488L7.56934 26.3778H19.2686Z" fill="#34ACA2"/>
<path d="M7.11035 26.3778L11.6982 22.2488L0 26.6072L7.11035 26.3778Z" fill="#34ACA2"/>
<path d="M12.1562 30.9648L20.043 29.8534C19.5946 28.9395 19.322 27.9181 19.2744 26.8359H7.56934L12.1562 30.9648Z" fill="#2E8B83"/>
<path d="M11.6982 30.9648L7.11035 26.8359L0 26.7216L11.6982 30.9648Z" fill="#2E8B83"/>
<path fill-rule="evenodd" clip-rule="evenodd" d="M31.5212 26.7772C31.481 29.5566 29.2155 31.7973 26.4266 31.7974C24.7327 31.7974 23.2321 30.9701 22.306 29.699C22.273 29.7042 22.2393 29.7075 22.2048 29.7075C21.8491 29.7075 21.5608 29.4192 21.5608 29.0635C21.5608 28.7078 21.8491 28.4195 22.2048 28.4195C22.5604 28.4195 22.8488 28.7078 22.8488 29.0635C22.8488 29.2167 22.7952 29.3575 22.7059 29.468C23.5513 30.6034 24.903 31.3386 26.4266 31.3386C28.9643 31.3386 31.0259 29.2995 31.0624 26.7705L31.5212 26.7772ZM22.2048 28.7636C22.0391 28.7636 21.9049 28.8979 21.9049 29.0635C21.9049 29.2292 22.0391 29.3634 22.2048 29.3634C22.3704 29.3634 22.5047 29.2291 22.5047 29.0635C22.5047 28.8979 22.3704 28.7636 22.2048 28.7636Z" fill="#2E8B83"/>
<path fill-rule="evenodd" clip-rule="evenodd" d="M30.517 26.8536C30.4372 29.0442 28.6364 30.7954 26.4264 30.7954C26.2853 30.7954 26.1458 30.7881 26.0082 30.7742C25.8983 30.9721 25.6873 31.1061 25.4449 31.1061C25.0892 31.1061 24.8009 30.8178 24.8009 30.4621C24.8009 30.1065 25.0892 29.8182 25.4449 29.8181C25.7516 29.8181 26.0079 30.0327 26.0727 30.3199C26.189 30.3311 26.307 30.3367 26.4264 30.3367C28.3886 30.3367 29.9879 28.7816 30.0587 26.8368L30.517 26.8536ZM25.4449 30.1622C25.2792 30.1622 25.1449 30.2965 25.1449 30.4621C25.1449 30.6278 25.2792 30.762 25.4449 30.7621C25.6105 30.7621 25.7448 30.6278 25.7448 30.4621C25.7448 30.2965 25.6105 30.1622 25.4449 30.1622Z" fill="#2E8B83"/>
<path fill-rule="evenodd" clip-rule="evenodd" d="M29.5144 26.8565C29.4338 28.4922 28.0822 29.7937 26.4266 29.7937C25.4212 29.7937 24.528 29.3136 23.9636 28.5709C23.9234 28.5788 23.8818 28.583 23.8393 28.583C23.4836 28.583 23.1953 28.2947 23.1953 27.9391C23.1953 27.5834 23.4836 27.2951 23.8393 27.2951C24.1949 27.2951 24.4832 27.5834 24.4832 27.9391C24.4832 28.0842 24.4348 28.2178 24.3538 28.3254C24.836 28.9403 25.5853 29.335 26.4266 29.335C27.8364 29.3349 28.9875 28.2267 29.0561 26.8341L29.5144 26.8565ZM23.8393 27.6391C23.6736 27.6391 23.5393 27.7734 23.5393 27.9391C23.5393 28.1047 23.6736 28.239 23.8393 28.239C24.0049 28.239 24.1392 28.1047 24.1392 27.9391C24.1392 27.7734 24.0049 27.6391 23.8393 27.6391Z" fill="#2E8B83"/>
<path fill-rule="evenodd" clip-rule="evenodd" d="M26.6553 21.3314C28.3493 21.3314 29.8498 22.1587 30.7759 23.4298C30.8089 23.4246 30.8427 23.4213 30.8772 23.4213C31.2328 23.4213 31.5212 23.7096 31.5212 24.0653C31.5212 24.421 31.2328 24.7093 30.8772 24.7093C30.5215 24.7093 30.2332 24.421 30.2332 24.0653C30.2332 23.9121 30.2867 23.7713 30.3761 23.6608C29.5306 22.5254 28.1789 21.7902 26.6553 21.7902C24.1176 21.7903 22.056 23.8293 22.0195 26.3583L21.5608 26.3516C21.6009 23.5722 23.8665 21.3315 26.6553 21.3314ZM30.8772 23.7654C30.7115 23.7654 30.5772 23.8997 30.5772 24.0653C30.5772 24.2309 30.7115 24.3652 30.8772 24.3652C31.0428 24.3652 31.1771 24.2309 31.1771 24.0653C31.1771 23.8997 31.0428 23.7654 30.8772 23.7654Z" fill="#34ACA2"/>
<path fill-rule="evenodd" clip-rule="evenodd" d="M26.6553 23.3351C27.6608 23.3351 28.554 23.8152 29.1184 24.5579C29.1586 24.55 29.2002 24.5458 29.2427 24.5458C29.5983 24.5458 29.8867 24.8341 29.8867 25.1897C29.8867 25.5454 29.5983 25.8337 29.2427 25.8337C28.887 25.8337 28.5987 25.5454 28.5987 25.1897C28.5987 25.0446 28.6472 24.911 28.7282 24.8034C28.2459 24.1885 27.4966 23.7938 26.6553 23.7938C25.2456 23.7939 24.0945 24.9021 24.0259 26.2947L23.5676 26.2723C23.6481 24.6366 24.9997 23.3351 26.6553 23.3351ZM29.2427 24.8898C29.077 24.8898 28.9428 25.0241 28.9428 25.1897C28.9428 25.3554 29.077 25.4897 29.2427 25.4897C29.4083 25.4897 29.5426 25.3554 29.5426 25.1897C29.5426 25.0241 29.4083 24.8898 29.2427 24.8898Z" fill="#34ACA2"/>
<path fill-rule="evenodd" clip-rule="evenodd" d="M27.6371 22.0227C27.9927 22.0227 28.2811 22.311 28.2811 22.6667C28.2811 23.0223 27.9927 23.3106 27.6371 23.3107C27.3303 23.3107 27.074 23.0961 27.0092 22.8089C26.8929 22.7977 26.7749 22.7921 26.6555 22.7921C24.6933 22.7921 23.0941 24.3472 23.0233 26.292L22.565 26.2752C22.6447 24.0846 24.4456 22.3334 26.6555 22.3334C26.7967 22.3334 26.9362 22.3407 27.0737 22.3547C27.1836 22.1567 27.3947 22.0227 27.6371 22.0227ZM27.6371 22.3667C27.4714 22.3668 27.3372 22.501 27.3372 22.6667C27.3372 22.8323 27.4715 22.9666 27.6371 22.9666C27.8027 22.9666 27.937 22.8323 27.937 22.6667C27.937 22.501 27.8027 22.3668 27.6371 22.3667Z" fill="#34ACA2"/>
</svg>
